# xmcd
#
# Track frame offsets: 
#        150
#        13424
#        24553
#        38294
#        56560
#        71037
#        84810
#        109469
#        122788
#        136527
#        152200
#        163830
#
# Disc length: 2417 seconds
#
# Revision: 0
# Processed by: cddbd v1.5.2PL0 Copyright (c) Steve Scherf et al.
# Submitted via: ExactAudioCopy v0.99pb5
#
DISCID=98096f0c
DTITLE=Pete Grubbs - This Space for Rent
DYEAR=2001
DGENRE=Folk
TTITLE0=WYSIWYG
TTITLE1=Yuppy Blues
TTITLE2=Sail Away
TTITLE3=My Maria
TTITLE4=Getting Passed Yesterday
TTITLE5=Good Boy Blues
TTITLE6=GDitS
TTITLE7=Just the Blues
TTITLE8=A Song for You
TTITLE9=Nothing to Lose
TTITLE10=The Ice In Your Eyes
TTITLE11=Somewhere There's An Ocean
EXTD=
EXTT0=
EXTT1=
EXTT2=
EXTT3=
EXTT4=
EXTT5=
EXTT6=
EXTT7=
EXTT8=
EXTT9=
EXTT10=
EXTT11=
PLAYORDER=
